<?xml version="1.0" encoding="UTF-8"?>
<svg width="44px" height="44px" viewBox="0 0 44 44" version="1.1" xmlns="http://www.w3.org/2000/svg" xmlns:xlink="http://www.w3.org/1999/xlink">
    <!-- Generator: sketchtool 46.2 (44496) - http://www.bohemiancoding.com/sketch -->
    <title>BD4ADE37-A359-481E-8862-3248F7E1EE8B</title>
    <desc>Created with sketchtool.</desc>
    <defs></defs>
    <g id="Page-1" stroke="none" stroke-width="1" fill="none" fill-rule="evenodd">
        <g id="ATPB-LP" transform="translate(-173.000000, -3755.000000)" fill="#FFFFFF">
            <g id="important-2" transform="translate(110.000000, 3710.000000)">
                <g id="alert-circle" transform="translate(63.000000, 45.000000)">
                    <g id="shape">
                        <path d="M22,44 C9.8497355,44 0,34.1502644 0,22 C0,9.8497355 9.8497355,0 22,0 C34.1502644,0 44,9.8497355 44,22 C44,34.1502644 34.1502644,44 22,44 Z M22,40 C31.9411254,40 40,31.9411254 40,22 C40,12.0588745 31.9411254,4 22,4 C12.0588745,4 4,12.0588745 4,22 C4,31.9411254 12.0588745,40 22,40 Z M20,33 C20,31.8954306 20.8954306,31 22,31 C23.1045694,31 24,31.8954306 24,33 C24,34.1045694 23.1045694,35 22,35 C20.8954306,35 20,34.1045694 20,33 Z M20,11.5 C20,10.3954305 20.8954306,9.5 22,9.5 C23.1045694,9.5 24,10.3954305 24,11.5 L24,25.5 C24,26.6045694 23.1045694,27.5 22,27.5 C20.8954306,27.5 20,26.6045694 20,25.5 L20,11.5 Z" fill-rule="nonzero"></path>
                    </g>
                </g>
            </g>
        </g>
    </g>
</svg>