<?xml version="1.0" encoding="UTF-8"?>
<svg width="44px" height="44px" viewBox="0 0 44 44" version="1.1" xmlns="http://www.w3.org/2000/svg" xmlns:xlink="http://www.w3.org/1999/xlink">
    <!-- Generator: sketchtool 46.2 (44496) - http://www.bohemiancoding.com/sketch -->
    <title>BE69494E-C6DF-45FE-920C-E7590304EC44</title>
    <desc>Created with sketchtool.</desc>
    <defs></defs>
    <g id="Page-1" stroke="none" stroke-width="1" fill="none" fill-rule="evenodd">
        <g id="ATPB-LP" transform="translate(-173.000000, -1579.000000)" fill="#FFFFFF">
            <g id="important" transform="translate(110.000000, 1534.000000)">
                <g id="check-circle" transform="translate(63.000000, 45.000000)">
                    <g id="shape">
                        <path d="M22,44 C9.8497355,44 0,34.1502644 0,22 C0,9.8497355 9.8497355,0 22,0 C34.1502644,0 44,9.8497355 44,22 C44,34.1502644 34.1502644,44 22,44 Z M22,40 C31.9411254,40 40,31.9411254 40,22 C40,12.0588745 31.9411254,4 22,4 C12.0588745,4 4,12.0588745 4,22 C4,31.9411254 12.0588745,40 22,40 Z M14.9289322,21.4142136 L19.1715728,25.6568542 L29.0710678,15.7573593 C29.8521164,14.9763107 31.1184464,14.9763107 31.899495,15.7573593 C32.6805436,16.5384079 32.6805436,17.8047379 31.899495,18.5857864 L20.5857864,29.899495 C19.8047378,30.6805436 18.5384078,30.6805436 17.7573593,29.899495 L12.1005051,24.2426406 C11.3194565,23.4615922 11.3194565,22.1952622 12.1005051,21.4142136 C12.8815536,20.633165 14.1478836,20.633165 14.9289322,21.4142136 Z" fill-rule="nonzero"></path>
                    </g>
                </g>
            </g>
        </g>
    </g>
</svg>