<?xml version="1.0" encoding="UTF-8"?>
<svg width="168px" height="168px" viewBox="0 0 168 168" version="1.1" xmlns="http://www.w3.org/2000/svg" xmlns:xlink="http://www.w3.org/1999/xlink">
    <!-- Generator: sketchtool 46.2 (44496) - http://www.bohemiancoding.com/sketch -->
    <title>26B9E6C6-FE03-4590-AFA5-DD576C9C15C6</title>
    <desc>Created with sketchtool.</desc>
    <defs>
        <linearGradient x1="50%" y1="0%" x2="50%" y2="100%" id="linearGradient-1">
            <stop stop-color="#E30B41" offset="0%"></stop>
            <stop stop-color="#B20933" offset="100%"></stop>
        </linearGradient>
    </defs>
    <g id="Page-1" stroke="none" stroke-width="1" fill="none" fill-rule="evenodd">
        <g id="ATPB-LP" transform="translate(-479.000000, -4738.000000)">
            <g id="Tng" transform="translate(188.000000, 4638.000000)">
                <g id="city-big" transform="translate(315.000000, 124.000000)">
                    <g>
                        <circle id="Oval" fill="#FFFFFF" cx="60" cy="60" r="60"></circle>
                        <circle id="Oval" stroke="#E1E1E1" fill="#FFFFFF" cx="60" cy="60" r="40"></circle>
                        <g id="city" transform="translate(38.000000, 34.000000)" fill-rule="nonzero" fill="url(#linearGradient-1)">
                            <path d="M30,20.3414114 L30,18.0004883 C30,16.8956491 29.1043508,16 27.9995118,16 C26.8949422,16 25.9995118,15.1045695 25.9995118,14 L25.9995118,10 C25.9995118,8.8954305 25.1040812,8 23.9995118,8 L20,8 C18.8954306,8 18,8.8954305 18,10 L18,14 C18,15.1045695 17.1045695,16 16,16 C14.8954305,16 14,16.8954305 14,18 L14,26.3414114 C16.3303847,27.1650842 18,29.3875624 18,32 L18,44 L26,44 L26,26 C26,23.3875624 27.6696152,21.1650842 30,20.3414114 Z M34,20 L38,20 C41.3137084,20 44,22.6862916 44,26 L44,44 C44,46.209139 42.209139,48 40,48 L28.5,48 L15.5,48 L4,48 C1.790861,48 0,46.209139 0,44 L0,32 C0,28.6862916 2.6862915,26 6,26 L10,26 L10,18 C10,15.3875623 11.6696153,13.1650842 14,12.3414114 L14,10 C14,6.6862915 16.6862915,4 20,4 L20,2 C20,0.8954305 20.8954306,1.96210959e-15 22,0 C23.1045694,-1.96210959e-15 24,0.8954305 24,2 L24,4.00000002 C27.3134842,4.0002639 29.9995118,6.68645426 29.9995118,10 L29.9995118,12.3413817 C32.3301712,13.1650756 34,15.3877772 34,18.0004883 L34,20 Z M14,32 C14,30.8954306 13.1045695,30 12,30 L6,30 C4.8954305,30 4,30.8954306 4,32 L4,44 L14,44 L14,32 Z M7,42 C5.8954305,42 5,41.1045694 5,40 C5,38.8954306 5.8954305,38 7,38 L11,38 C12.1045695,38 13,38.8954306 13,40 C13,41.1045694 12.1045695,42 11,42 L7,42 Z M7,36 C5.8954305,36 5,35.1045694 5,34 C5,32.8954306 5.8954305,32 7,32 L11,32 C12.1045695,32 13,32.8954306 13,34 C13,35.1045694 12.1045695,36 11,36 L7,36 Z M30,44 L40,44 L40,26 C40,24.8954306 39.1045694,24 38,24 L32,24 C30.8954306,24 30,24.8954306 30,26 L30,44 Z M33,36 C31.8954306,36 31,35.1045694 31,34 C31,32.8954306 31.8954306,32 33,32 L37,32 C38.1045694,32 39,32.8954306 39,34 C39,35.1045694 38.1045694,36 37,36 L33,36 Z M33,42 C31.8954306,42 31,41.1045694 31,40 C31,38.8954306 31.8954306,38 33,38 L37,38 C38.1045694,38 39,38.8954306 39,40 C39,41.1045694 38.1045694,42 37,42 L33,42 Z M33,30 C31.8954306,30 31,29.1045694 31,28 C31,26.8954306 31.8954306,26 33,26 L37,26 C38.1045694,26 39,26.8954306 39,28 C39,29.1045694 38.1045694,30 37,30 L33,30 Z" id="Combined-Shape"></path>
                        </g>
                    </g>
                </g>
            </g>
        </g>
    </g>
</svg>