<?xml version="1.0" encoding="UTF-8"?>
<svg width="48px" height="39px" viewBox="0 0 48 39" version="1.1" xmlns="http://www.w3.org/2000/svg" xmlns:xlink="http://www.w3.org/1999/xlink">
    <!-- Generator: sketchtool 46.2 (44496) - http://www.bohemiancoding.com/sketch -->
    <title>B062ECF2-0922-48CB-904F-324E39C8B6B4</title>
    <desc>Created with sketchtool.</desc>
    <defs>
        <linearGradient x1="50%" y1="0%" x2="50%" y2="100%" id="linearGradient-1">
            <stop stop-color="#E30B41" offset="0%"></stop>
            <stop stop-color="#B20933" offset="100%"></stop>
        </linearGradient>
    </defs>
    <g id="Symbols" stroke="none" stroke-width="1" fill="none" fill-rule="evenodd">
        <g id="donate" fill-rule="nonzero" fill="url(#linearGradient-1)">
            <g id="Combined-Shape">
                <path d="M4,17 L4,31 L8,31 L8,17 L4,17 Z M32.9297424,21 L35.1414424,21 C36.9623828,19.1428192 38,16.6560196 38,14 C38,8.4771525 33.5228474,4 28,4 C22.8085808,4 18.5411172,7.95592444 18.0476284,13.0177542 C19.9747437,13.1463347 21.7973866,13.9689596 23.1715728,15.3431458 L24.8284272,17 L26,17 C28.9611294,17 31.5465048,18.6087946 32.9297424,21 Z M34,25 L34,27 C34,28.1045694 33.1045694,29 32,29 L20,29 C18.8954305,29 18,28.1045694 18,27 C18,25.8954306 18.8954305,25 20,25 L30,25 C30,22.790861 28.209139,21 26,21 L24,21 C23.469567,21 22.9608592,20.7892864 22.5857864,20.4142136 L20.3431458,18.1715728 C19.5930002,17.4214274 18.5755846,17 17.5147186,17 L12,17 L12,31.4914634 L22.9385244,34.6167288 C23.640998,34.8174338 24.385024,34.8219154 25.0898642,34.6296872 L44,29.472406 L44,29 C44,26.790861 42.209139,25 40,25 L34,25 Z M9.71964832,35 L2,35 C0.8954305,35 0,34.1045694 0,33 L0,15 C0,13.8954305 0.8954305,13 2,13 L10,13 L14.0351641,13 C14.5479105,5.73472442 20.604247,0 28,0 C35.7319864,0 42,6.2680135 42,14 C42,16.5042314 41.3382674,18.9059142 40.1266708,21.0009826 C44.4865332,21.0686602 48,24.624023 48,29 L48,31 C48,31.9019032 47.396356,32.6922232 46.526232,32.9295284 L26.1423284,38.488744 C24.732648,38.8732002 23.2445958,38.864237 21.8396488,38.462827 L9.71964832,35 Z"></path>
            </g>
        </g>
    </g>
</svg>