<?xml version="1.0" encoding="UTF-8"?>
<svg width="42px" height="44px" viewBox="0 0 42 44" version="1.1" xmlns="http://www.w3.org/2000/svg" xmlns:xlink="http://www.w3.org/1999/xlink">
    <!-- Generator: sketchtool 46.2 (44496) - http://www.bohemiancoding.com/sketch -->
    <title>A54D67DE-D9ED-4B27-87E6-26CF8F931FEF</title>
    <desc>Created with sketchtool.</desc>
    <defs>
        <linearGradient x1="50%" y1="0%" x2="50%" y2="100%" id="linearGradient-1">
            <stop stop-color="#E30B41" offset="0%"></stop>
            <stop stop-color="#B20933" offset="100%"></stop>
        </linearGradient>
    </defs>
    <g id="Page-1" stroke="none" stroke-width="1" fill="none" fill-rule="evenodd">
        <g id="ATPB-LP" transform="translate(-740.000000, -2216.000000)" fill="url(#linearGradient-1)">
            <g id="Plus" transform="translate(106.000000, 1768.000000)">
                <g id="food" transform="translate(634.000000, 448.000000)">
                    <g id="shape">
                        <path d="M12,4 L10,4 L10,10 C10,11.1045695 9.1045695,12 8,12 C6.8954305,12 6,11.1045695 6,10 L6,4.53512878 C4.80439726,5.22674762 4,6.51943528 4,8 L4,15.1162509 C4,16.3313858 4.55235888,17.4806374 5.5012198,18.2397262 L7.4987802,19.8377744 C8.44764112,20.5968632 9,21.7461148 9,22.9612496 L9,38 C9,39.1045694 9.8954305,40 11,40 C12.1045695,40 13,39.1045694 13,38 L13,22.9612496 C13,21.7461148 13.5523589,20.5968632 14.5012198,19.8377744 L16.4987802,18.2397262 C17.4476412,17.4806374 18,16.3313858 18,15.1162509 L18,8 C18,6.51943528 17.1956028,5.22674762 16,4.53512878 L16,10 C16,11.1045695 15.1045695,12 14,12 C12.8954305,12 12,11.1045695 12,10 L12,4 Z M30,28 C26.6862916,28 24,25.3137084 24,22 L24,14 C24,6.2680135 30.2680136,0 38,0 L40,0 C41.1045694,0 42,0.8954305 42,2 L42,38 C42,41.3137084 39.3137084,44 36,44 C32.6862916,44 30,41.3137084 30,38 L30,28 Z M28,14 L28,22 C28,23.1045694 28.8954306,24 30,24 L32,24 C33.1045694,24 34,24.8954306 34,26 L34,38 C34,39.1045694 34.8954306,40 36,40 C37.1045694,40 38,39.1045694 38,38 L38,4 C32.4771526,4 28,8.4771525 28,14 Z M8,0 L14,0 C18.418278,0 22,3.581722 22,8 L22,15.1162509 C22,17.5465207 20.8952822,19.8450238 18.9975604,21.3632014 L17,22.9612496 L17,38 C17,41.3137084 14.3137085,44 11,44 C7.6862915,44 5,41.3137084 5,38 L5,22.9612496 L3.00243962,21.3632014 C1.10471776,19.8450238 0,17.5465207 0,15.1162509 L0,8 C0,3.581722 3.581722,0 8,0 Z" fill-rule="nonzero"></path>
                    </g>
                </g>
            </g>
        </g>
    </g>
</svg>