<?xml version="1.0" encoding="UTF-8"?>
<svg width="44px" height="40px" viewBox="0 0 44 40" version="1.1" xmlns="http://www.w3.org/2000/svg" xmlns:xlink="http://www.w3.org/1999/xlink">
    <!-- Generator: sketchtool 46.2 (44496) - http://www.bohemiancoding.com/sketch -->
    <title>7C86E379-9503-4E42-B333-B7987AA6B381</title>
    <desc>Created with sketchtool.</desc>
    <defs></defs>
    <g id="Symbols" stroke="none" stroke-width="1" fill="none" fill-rule="evenodd">
        <g id="like" fill-rule="nonzero" fill="#FFFFFF">
            <g id="shape">
                <path d="M14,14.3202861 L14,36 L33.1211746,36 C35.0158776,36 36.6506636,34.670694 37.0370964,32.815817 L39.5370964,20.815817 C39.5930006,20.547477 39.6211746,20.2741014 39.6211746,20 C39.6211746,17.790861 37.8303136,16 35.6211746,16 L28,16 C25.790861,16 24,14.209139 24,12 L24,7 C24,5.34314576 22.6568542,4 21,4 L17.4413519,4 L14,14.3202861 Z M10,36 L10,16 L8,16 C5.790861,16 4,17.790861 4,20 L4,32 C4,34.209139 5.790861,36 8,36 L10,36 Z M13.6467574,2.73467312 C14.1913415,1.10151728 15.7197916,0 17.4413519,0 L21,0 C24.8659932,0 28,3.13400676 28,7 L28,12 L35.6211746,12 C40.0394526,12 43.6211746,15.581722 43.6211746,20 C43.6211746,20.548203 43.5648264,21.094954 43.453018,21.631634 L40.953018,33.631634 C40.1801526,37.3413882 36.9105804,40 33.1211746,40 L8,40 C3.581722,40 0,36.418278 0,32 L0,20 C0,15.581722 3.581722,12 8,12 L10.557187,12 L13.6467574,2.73467312 Z"></path>
            </g>
        </g>
    </g>
</svg>