<?xml version="1.0" encoding="UTF-8"?>
<svg width="38px" height="47px" viewBox="0 0 38 47" version="1.1" xmlns="http://www.w3.org/2000/svg" xmlns:xlink="http://www.w3.org/1999/xlink">
    <!-- Generator: sketchtool 46.2 (44496) - http://www.bohemiancoding.com/sketch -->
    <title>3AD04ED0-C790-4907-BE24-5BA255B2C3E8</title>
    <desc>Created with sketchtool.</desc>
    <defs>
        <linearGradient x1="50%" y1="0%" x2="50%" y2="100%" id="linearGradient-1">
            <stop stop-color="#E30B41" offset="0%"></stop>
            <stop stop-color="#B20933" offset="100%"></stop>
        </linearGradient>
    </defs>
    <g id="Symbols" stroke="none" stroke-width="1" fill="none" fill-rule="evenodd">
        <g id="location-2" fill-rule="nonzero" fill="url(#linearGradient-1)">
            <g id="shape">
                <path d="M21.5458596,45.5110984 C20.0677514,46.7308018 17.932248,46.7308016 16.4541402,45.5110982 C5.5538912,36.516446 0,27.699021 0,19 C0,8.50658976 8.50658976,0 19,0 C29.4934102,0 38,8.50658976 38,19 C38,27.699021 32.4461088,36.516446 21.5458596,45.5110984 Z M34,19 C34,10.7157288 27.2842712,4 19,4 C10.7157288,4 4,10.7157288 4,19 C4,26.2887726 8.93082216,34.1170056 19.0000002,42.425876 C29.0691778,34.1170058 34,26.2887726 34,19 Z M19,25 C14.581722,25 11,21.418278 11,17 C11,12.581722 14.581722,9 19,9 C23.418278,9 27,12.581722 27,17 C27,21.418278 23.418278,25 19,25 Z M19,21 C21.209139,21 23,19.209139 23,17 C23,14.790861 21.209139,13 19,13 C16.790861,13 15,14.790861 15,17 C15,19.209139 16.790861,21 19,21 Z"></path>
            </g>
        </g>
    </g>
</svg>