<?xml version="1.0" encoding="UTF-8"?>
<svg width="43px" height="43px" viewBox="0 0 43 43" version="1.1" xmlns="http://www.w3.org/2000/svg" xmlns:xlink="http://www.w3.org/1999/xlink">
    <!-- Generator: sketchtool 46.2 (44496) - http://www.bohemiancoding.com/sketch -->
    <title>0306A52B-6F54-4EFA-B067-EFE5542CB9D9</title>
    <desc>Created with sketchtool.</desc>
    <defs>
        <linearGradient x1="50%" y1="0%" x2="50%" y2="100%" id="linearGradient-1">
            <stop stop-color="#E30B41" offset="0%"></stop>
            <stop stop-color="#B20933" offset="100%"></stop>
        </linearGradient>
    </defs>
    <g id="Symbols" stroke="none" stroke-width="1" fill="none" fill-rule="evenodd">
        <g id="message" fill-rule="nonzero" fill="url(#linearGradient-1)">
            <g id="shape">
                <path d="M29.0387268,40.405867 C26.5116954,41.4537314 23.7922078,42 21,42 C9.40202026,42 0,32.5979798 0,21 C0,9.40202026 9.40202026,0 21,0 C32.5979798,0 42,9.40202026 42,21 C42,23.7922078 41.4537314,26.5116954 40.405867,29.0387268 C40.0127982,29.9866522 39.550792,30.903302 39.0242602,31.7818078 L41.8701984,39.2912278 C42.4810488,40.9030452 40.9030452,42.4810488 39.2912278,41.8701984 L31.7818078,39.0242602 C30.903302,39.550792 29.9866522,40.0127982 29.0387268,40.405867 Z M34.9297962,32.2650942 C34.700488,31.660031 34.7780732,30.9814154 35.1380312,30.4437222 C35.7572574,29.5187436 36.2843978,28.535217 36.7109352,27.5065784 C37.5582714,25.4631412 38,23.2640846 38,21 C38,11.6111593 30.3888408,4 21,4 C11.6111593,4 4,11.6111593 4,21 C4,30.3888408 11.6111593,38 21,38 C23.2640846,38 25.4631412,37.5582714 27.5065784,36.7109352 C28.535217,36.2843978 29.5187436,35.7572574 30.4437222,35.1380312 C30.9814154,34.7780732 31.660031,34.700488 32.2650942,34.9297962 L36.5559582,36.5559582 L34.9297962,32.2650942 Z M11,21 C11,19.8954306 11.8954305,19 13,19 C14.1045695,19 15,19.8954306 15,21 C15,22.1045694 14.1045695,23 13,23 C11.8954305,23 11,22.1045694 11,21 Z M19,21 C19,19.8954306 19.8954306,19 21,19 C22.1045694,19 23,19.8954306 23,21 C23,22.1045694 22.1045694,23 21,23 C19.8954306,23 19,22.1045694 19,21 Z M27,21 C27,19.8954306 27.8954306,19 29,19 C30.1045694,19 31,19.8954306 31,21 C31,22.1045694 30.1045694,23 29,23 C27.8954306,23 27,22.1045694 27,21 Z"></path>
            </g>
        </g>
    </g>
</svg>