<?xml version="1.0" encoding="UTF-8"?>
<svg width="36px" height="44px" viewBox="0 0 36 44" version="1.1" xmlns="http://www.w3.org/2000/svg" xmlns:xlink="http://www.w3.org/1999/xlink">
    <!-- Generator: sketchtool 46.2 (44496) - http://www.bohemiancoding.com/sketch -->
    <title>38FCCA7E-C961-4318-8317-DF9BF30643AA</title>
    <desc>Created with sketchtool.</desc>
    <defs>
        <linearGradient x1="50%" y1="0%" x2="50%" y2="100%" id="linearGradient-1">
            <stop stop-color="#E30B41" offset="0%"></stop>
            <stop stop-color="#B20933" offset="100%"></stop>
        </linearGradient>
    </defs>
    <g id="Symbols" stroke="none" stroke-width="1" fill="none" fill-rule="evenodd">
        <g id="security-check" fill-rule="nonzero" fill="url(#linearGradient-1)">
            <g id="shape">
                <path d="M36,24 C36,30.0582662 30.630255,36.2907702 20.158322,43.0020446 C18.8429188,43.8450632 17.1570816,43.8450632 15.8416782,43.0020448 C5.36974498,36.2907704 -2.00000017e-08,30.0582662 -2.00000017e-08,24 L-2.00000017e-08,10.0666613 C-6.00000014e-08,8.06027756 1.00286954,6.18667888 2.6724203,5.07394524 C7.72593502,1.70584404 12.8448477,2.00000017e-08 18,2.00000017e-08 C23.1551522,2.00000017e-08 28.274065,1.70584404 33.3275796,5.07394526 C34.9971304,6.18667892 36,8.06027756 36,10.0666613 L36,24 Z M32,24 L32,10.0666613 C32,9.39786672 31.6657102,8.77333382 31.1091932,8.40242262 C26.6837836,5.45294526 22.323772,4.00000002 18,4.00000002 C13.6762279,4.00000002 9.3162163,5.45294526 4.89080674,8.4024226 C4.33428982,8.77333382 3.99999996,9.3978667 3.99999998,10.0666613 L3.99999998,24 C3.99999998,28.282638 8.57748108,33.595585 18,39.6343086 C27.422519,33.595585 32,28.282638 32,24 Z M10.9289322,19.4142136 L15.1715728,23.6568542 L25.0710678,13.7573593 C25.8521164,12.9763107 27.1184464,12.9763107 27.899495,13.7573593 C28.6805436,14.5384079 28.6805436,15.8047379 27.899495,16.5857864 L16.5857864,27.899495 C15.8047378,28.6805436 14.5384078,28.6805436 13.7573593,27.899495 L8.10050506,22.2426406 C7.31945648,21.4615922 7.31945648,20.1952622 8.10050506,19.4142136 C8.88155364,18.633165 10.1478836,18.633165 10.9289322,19.4142136 Z"></path>
            </g>
        </g>
    </g>
</svg>