<?xml version="1.0" encoding="UTF-8"?>
<svg width="44px" height="40px" viewBox="0 0 44 40" version="1.1" xmlns="http://www.w3.org/2000/svg" xmlns:xlink="http://www.w3.org/1999/xlink">
    <!-- Generator: sketchtool 46.2 (44496) - http://www.bohemiancoding.com/sketch -->
    <title>F2EC9DCA-0B06-4E8D-861E-2B7A73A85563</title>
    <desc>Created with sketchtool.</desc>
    <defs>
        <linearGradient x1="50%" y1="0%" x2="50%" y2="100%" id="linearGradient-1">
            <stop stop-color="#E30B41" offset="0%"></stop>
            <stop stop-color="#B20933" offset="100%"></stop>
        </linearGradient>
    </defs>
    <g id="Symbols" stroke="none" stroke-width="1" fill="none" fill-rule="evenodd">
        <g id="shapes" fill-rule="nonzero" fill="url(#linearGradient-1)">
            <g id="Combined-Shape">
                <path d="M12,33 L17,33 C18.1045694,33 19,32.1045694 19,31 C19,29.8954306 18.1045694,29 17,29 L12,29 L12,24 C12,22.8954306 11.1045695,22 10,22 C8.8954305,22 8,22.8954306 8,24 L8,29 L3,29 C1.8954305,29 1,29.8954306 1,31 C1,32.1045694 1.8954305,33 3,33 L8,33 L8,38 C8,39.1045694 8.8954305,40 10,40 C11.1045695,40 12,39.1045694 12,38 L12,33 Z M26,1 L40,1 C41.1045694,1 42,1.8954305 42,3 L42,17 C42,18.1045694 41.1045694,19 40,19 L26,19 C24.8954306,19 24,18.1045694 24,17 L24,3 C24,1.8954305 24.8954306,1 26,1 Z M28,15 L38,15 L38,5 L28,5 L28,15 Z M10,20 C4.4771525,20 0,15.5228475 0,10 C0,4.4771525 4.4771525,0 10,0 C15.5228475,0 20,4.4771525 20,10 C20,15.5228475 15.5228475,20 10,20 Z M10,16 C13.3137085,16 16,13.3137085 16,10 C16,6.6862915 13.3137085,4 10,4 C6.6862915,4 4,6.6862915 4,10 C4,13.3137085 6.6862915,16 10,16 Z M34.7033166,22.9518052 L42.7033166,35.9518052 C43.5233412,37.284345 42.5646414,39 41,39 L25,39 C23.4353586,39 22.4766588,37.284345 23.2966834,35.9518052 L31.2966834,22.9518052 C32.0776516,21.6827316 33.9223484,21.6827316 34.7033166,22.9518052 Z M28.5791288,35 L37.4208712,35 L33,27.8160844 L28.5791288,35 Z"></path>
            </g>
        </g>
    </g>
</svg>