<?xml version="1.0" encoding="UTF-8"?>
<svg width="42px" height="46px" viewBox="0 0 42 46" version="1.1" xmlns="http://www.w3.org/2000/svg" xmlns:xlink="http://www.w3.org/1999/xlink">
    <!-- Generator: sketchtool 46.2 (44496) - http://www.bohemiancoding.com/sketch -->
    <title>82915E01-EA16-4AB2-97EA-F5519E9A52CA</title>
    <desc>Created with sketchtool.</desc>
    <defs>
        <linearGradient x1="50%" y1="0%" x2="50%" y2="100%" id="linearGradient-1">
            <stop stop-color="#E30B41" offset="0%"></stop>
            <stop stop-color="#B20933" offset="100%"></stop>
        </linearGradient>
    </defs>
    <g id="Page-1" stroke="none" stroke-width="1" fill="none" fill-rule="evenodd">
        <g id="ATPB-LP" transform="translate(-425.000000, -2215.000000)" fill="url(#linearGradient-1)">
            <g id="Plus" transform="translate(106.000000, 1768.000000)">
                <g id="timer" transform="translate(319.000000, 447.000000)">
                    <g id="shape">
                        <path d="M22,22.5351288 C23.1956028,23.2267476 24,24.5194352 24,26 C24,28.209139 22.209139,30 20,30 C17.790861,30 16,28.209139 16,26 C16,24.5194352 16.8043972,23.2267476 18,22.5351288 L18,15 C18,13.8954305 18.8954306,13 20,13 C21.1045694,13 22,13.8954305 22,15 L22,22.5351288 Z M35.1715728,9 L34.5857864,8.41421356 C33.8047378,7.63316498 33.8047378,6.36683502 34.5857864,5.58578644 C35.366835,4.80473786 36.633165,4.80473786 37.4142136,5.58578644 L41.4142136,9.58578644 C42.1952622,10.366835 42.1952622,11.633165 41.4142136,12.4142136 C40.633165,13.1952621 39.366835,13.1952621 38.5857864,12.4142136 L38,11.8284271 L35.9269706,13.9014565 C38.4827656,17.2608193 40,21.453225 40,26 C40,37.045695 31.045695,46 20,46 C8.954305,46 0,37.045695 0,26 C0,15.6293038 7.89335462,7.10219934 18,6.09875048 L18,4 L16,4 C14.8954305,4 14,3.1045695 14,2 C14,0.8954305 14.8954305,0 16,0 L24,0 C25.1045694,0 26,0.8954305 26,2 C26,3.1045695 25.1045694,4 24,4 L22,4 L22,6.09875048 C26.2709878,6.52279998 30.1467172,8.29045412 33.198524,10.9730488 L35.1715728,9 Z M20,42 C28.836556,42 36,34.836556 36,26 C36,17.163444 28.836556,10 20,10 C11.163444,10 4,17.163444 4,26 C4,34.836556 11.163444,42 20,42 Z" fill-rule="nonzero"></path>
                    </g>
                </g>
            </g>
        </g>
    </g>
</svg>