<?xml version="1.0" encoding="UTF-8"?>
<svg width="168px" height="168px" viewBox="0 0 168 168" version="1.1" xmlns="http://www.w3.org/2000/svg" xmlns:xlink="http://www.w3.org/1999/xlink">
    <!-- Generator: sketchtool 46.2 (44496) - http://www.bohemiancoding.com/sketch -->
    <title>F29E5602-9827-49AE-B09C-F26C4E57263B</title>
    <desc>Created with sketchtool.</desc>
    <defs>
        <linearGradient x1="50%" y1="0%" x2="50%" y2="100%" id="linearGradient-1">
            <stop stop-color="#E30B41" offset="0%"></stop>
            <stop stop-color="#B20933" offset="100%"></stop>
        </linearGradient>
    </defs>
    <g id="Page-1" stroke="none" stroke-width="1" fill="none" fill-rule="evenodd">
        <g id="ATPB-LP" transform="translate(-766.000000, -3451.000000)">
            <g id="Plus-2" transform="translate(160.000000, 3460.000000)">
                <g id="time-big" transform="translate(630.000000, 15.000000)">
                    <g>
                        <circle id="Oval-Copy-2" fill="#FFFFFF" cx="60" cy="60" r="60"></circle>
                        <circle id="Oval-Copy-2" stroke="#E1E1E1" fill="#FFFFFF" cx="60" cy="60" r="40"></circle>
                        <g id="time" transform="translate(38.000000, 38.000000)" fill-rule="nonzero" fill="url(#linearGradient-1)">
                            <path d="M22,44 C9.8497355,44 0,34.1502644 0,22 C0,9.8497355 9.8497355,0 22,0 C34.1502644,0 44,9.8497355 44,22 C44,34.1502644 34.1502644,44 22,44 Z M22,40 C31.9411254,40 40,31.9411254 40,22 C40,12.0588745 31.9411254,4 22,4 C12.0588745,4 4,12.0588745 4,22 C4,31.9411254 12.0588745,40 22,40 Z M24,10 L24,21.0218324 L32.2278812,27.4212956 C33.0997756,28.0994356 33.2568446,29.3559868 32.5787044,30.2278812 C31.9005644,31.0997756 30.6440132,31.2568446 29.7721188,30.5787044 L20.7721188,23.5787044 C20.2849456,23.199792 20,22.6171808 20,22 L20,10 C20,8.8954305 20.8954306,8 22,8 C23.1045694,8 24,8.8954305 24,10 Z" id="shape"></path>
                        </g>
                    </g>
                </g>
            </g>
        </g>
    </g>
</svg>