<?xml version="1.0" encoding="UTF-8"?>
<svg width="44px" height="38px" viewBox="0 0 44 38" version="1.1" xmlns="http://www.w3.org/2000/svg" xmlns:xlink="http://www.w3.org/1999/xlink">
    <!-- Generator: sketchtool 46.2 (44496) - http://www.bohemiancoding.com/sketch -->
    <title>6F5053CF-D33B-4361-98BD-BCA651A827A9</title>
    <desc>Created with sketchtool.</desc>
    <defs></defs>
    <g id="Symbols" stroke="none" stroke-width="1" fill="none" fill-rule="evenodd">
        <g id="users" fill-rule="nonzero" fill="#FFFFFF">
            <g id="shape">
                <path d="M0.00037632,29.9195652 C0.04109466,25.5693906 3.3811687,22 7.57142858,22 L22.4285714,22 C26.644629,22 30,25.6134764 30,30 L30,34 C30,35.1045694 29.5522848,36.1045694 28.8284272,36.8284272 C28.1045694,37.5522848 27.1045694,38 26,38 L4,38 C1.790861,38 0,36.209139 0,34 L0,30 C0,29.9731584 0.0001322,29.9463476 0.00039596,29.9195684 L0.00037632,29.9195652 Z M15,20 C9.4771525,20 5,15.5228474 5,10 C5,4.4771525 9.4771525,0 15,0 C20.5228474,0 25,4.4771525 25,10 C25,15.5228474 20.5228474,20 15,20 Z M15,16 C18.3137084,16 21,13.3137085 21,10 C21,6.6862915 18.3137084,4 15,4 C11.6862915,4 9,6.6862915 9,10 C9,13.3137085 11.6862915,16 15,16 Z M29.7561782,19.948463 C28.6598476,19.8138038 27.8802588,18.8158894 28.014918,17.719559 C28.149577,16.6232284 29.1474914,15.8436396 30.2438218,15.9782988 C30.3612386,15.9927206 30.480013,16 30.6,16 C32.428038,16 34,14.2533754 34,12 C34,9.74662456 32.428038,8 30.6,8 C30.480013,8 30.3612386,8.0072793 30.2438218,8.02170128 C29.1474914,8.15636038 28.149577,7.37677162 28.014918,6.28044106 C27.8802588,5.1841105 28.6598476,4.1861962 29.7561782,4.0515371 C30.035247,4.01725988 30.3168714,4 30.6,4 C34.7366374,4 38,7.62595846 38,12 C38,16.3740416 34.7366374,20 30.6,20 C30.3168714,20 30.035247,19.9827402 29.7561782,19.948463 Z M35.0003274,26 C33.895758,26 33.0003274,25.1045694 33.0003274,24 C33.0003274,22.8954306 33.895758,22 35.0003274,22 L36.0003274,22 C40.4186054,22 44.0003274,25.581722 44.0003274,30 L44.0003274,34 C44.0003274,36.209139 42.2094664,38 40.0003274,38 L36,38 C34.8954306,38 34,37.1045694 34,36 C34,34.8954306 34.8954306,34 36,34 L40.0003274,34 L40.0003274,30 C40.0003274,27.790861 38.2094664,26 36.0003274,26 L35.0003274,26 Z M4,34 L26,34 L26,30 C26,27.7591066 24.366544,26 22.4285714,26 L7.57142858,26 C5.63345604,26 4,27.7591066 4,30 L4,34 Z"></path>
            </g>
        </g>
    </g>
</svg>